<?xml version="1.0" encoding="utf-8"?>
<!-- Generator: Adobe Illustrator 22.0.1, SVG Export Plug-In . SVG Version: 6.00 Build 0)  -->
<svg version="1.1" id="レイヤー_1" xmlns="http://www.w3.org/2000/svg" xmlns:xlink="http://www.w3.org/1999/xlink" x="0px"
	 y="0px" viewBox="0 0 418.3 150.6" style="enable-background:new 0 0 418.3 150.6;" xml:space="preserve">
<style type="text/css">
	.st0{fill:none;stroke:#F9CA03;stroke-width:2;stroke-linecap:round;stroke-linejoin:round;}
	.st1{enable-background:new    ;}
</style>
<title>touchtennislogo4</title>
<path class="st0" d="M132.1,71.8c-21.8-3.3-36.4,21.9-22.6,39.2"/>
<path class="st0" d="M128.5,62.6c-25.5,0-41.5,27.7-28.8,49.8"/>
<path class="st0" d="M130.7,67.2c-24.1-1.8-39.6,25-25.9,44.9"/>
<circle class="st0" cx="71" cy="62.6" r="24.3"/>
<circle class="st0" cx="71" cy="62.6" r="28.8"/>
<circle class="st0" cx="71" cy="62.6" r="33.2"/>
<circle class="st0" cx="99.8" cy="79.2" r="28.8"/>
<circle class="st0" cx="99.8" cy="79.2" r="24.3"/>
<circle class="st0" cx="99.8" cy="79.2" r="33.2"/>
<g>
	<g class="st1">
		<path d="M158.3,45.8h5.4L201.6,88h0.4V45.8h4.2V105H204l-41-47h-0.3v45.7h-4.3L158.3,45.8L158.3,45.8z"/>
		<path d="M266.8,45.8v3.7h-20.9v54.1h-9.7V49.5h-20.9v-3.7H266.8z"/>
	</g>
	<g class="st1">
		<path d="M321.7,45.8v3.7h-20.9v54.1H291V49.5h-20.9v-3.7H321.7z"/>
	</g>
	<g class="st1">
		<path d="M347.8,44.4l27.2,59.1h-9.9l-8.8-19.3h-24.8l-9.1,19.3h-4.9l27.9-59.1H347.8z M333.2,80.5h21.3L344,57.7L333.2,80.5z"/>
	</g>
</g>
</svg>
